<mxfile host="app.diagrams.net" agent="Mozilla/5.0 (Windows NT 10.0; Win64; x64) AppleWebKit/537.36 (KHTML, like Gecko) Chrome/134.0.0.0 Safari/537.36" version="26.1.1">
  <diagram id="C5RBs43oDa-KdzZeNtuy" name="Page-1">
    <mxGraphModel dx="1600" dy="927" grid="1" gridSize="10" guides="1" tooltips="1" connect="1" arrows="1" fold="1" page="1" pageScale="1" pageWidth="827" pageHeight="1169" math="0" shadow="0">
      <root>
        <mxCell id="WIyWlLk6GJQsqaUBKTNV-0" />
        <mxCell id="WIyWlLk6GJQsqaUBKTNV-1" parent="WIyWlLk6GJQsqaUBKTNV-0" />
        <mxCell id="sdbWK73cE8uQ8-mOUsc3-63" value="Flowchart Diagram" style="shape=table;startSize=30;container=1;collapsible=0;childLayout=tableLayout;" vertex="1" parent="WIyWlLk6GJQsqaUBKTNV-1">
          <mxGeometry width="1300" height="1050" as="geometry" />
        </mxCell>
        <mxCell id="sdbWK73cE8uQ8-mOUsc3-64" value="" style="shape=tableRow;horizontal=0;startSize=0;swimlaneHead=0;swimlaneBody=0;strokeColor=inherit;top=0;left=0;bottom=0;right=0;collapsible=0;dropTarget=0;fillColor=none;points=[[0,0.5],[1,0.5]];portConstraint=eastwest;" vertex="1" parent="sdbWK73cE8uQ8-mOUsc3-63">
          <mxGeometry y="30" width="1300" height="30" as="geometry" />
        </mxCell>
        <mxCell id="sdbWK73cE8uQ8-mOUsc3-65" value="Pasien" style="shape=partialRectangle;html=1;whiteSpace=wrap;connectable=0;strokeColor=inherit;overflow=hidden;fillColor=none;top=0;left=0;bottom=0;right=0;pointerEvents=1;" vertex="1" parent="sdbWK73cE8uQ8-mOUsc3-64">
          <mxGeometry width="240" height="30" as="geometry">
            <mxRectangle width="240" height="30" as="alternateBounds" />
          </mxGeometry>
        </mxCell>
        <mxCell id="sdbWK73cE8uQ8-mOUsc3-66" value="Sistem" style="shape=partialRectangle;html=1;whiteSpace=wrap;connectable=0;strokeColor=inherit;overflow=hidden;fillColor=none;top=0;left=0;bottom=0;right=0;pointerEvents=1;" vertex="1" parent="sdbWK73cE8uQ8-mOUsc3-64">
          <mxGeometry x="240" width="349" height="30" as="geometry">
            <mxRectangle width="349" height="30" as="alternateBounds" />
          </mxGeometry>
        </mxCell>
        <mxCell id="sdbWK73cE8uQ8-mOUsc3-67" value="Tenaga Medis" style="shape=partialRectangle;html=1;whiteSpace=wrap;connectable=0;strokeColor=inherit;overflow=hidden;fillColor=none;top=0;left=0;bottom=0;right=0;pointerEvents=1;" vertex="1" parent="sdbWK73cE8uQ8-mOUsc3-64">
          <mxGeometry x="589" width="336" height="30" as="geometry">
            <mxRectangle width="336" height="30" as="alternateBounds" />
          </mxGeometry>
        </mxCell>
        <mxCell id="sdbWK73cE8uQ8-mOUsc3-68" value="Obat" style="shape=partialRectangle;html=1;whiteSpace=wrap;connectable=0;strokeColor=inherit;overflow=hidden;fillColor=none;top=0;left=0;bottom=0;right=0;pointerEvents=1;" vertex="1" parent="sdbWK73cE8uQ8-mOUsc3-64">
          <mxGeometry x="925" width="375" height="30" as="geometry">
            <mxRectangle width="375" height="30" as="alternateBounds" />
          </mxGeometry>
        </mxCell>
        <mxCell id="sdbWK73cE8uQ8-mOUsc3-69" value="" style="shape=tableRow;horizontal=0;startSize=0;swimlaneHead=0;swimlaneBody=0;strokeColor=inherit;top=0;left=0;bottom=0;right=0;collapsible=0;dropTarget=0;fillColor=none;points=[[0,0.5],[1,0.5]];portConstraint=eastwest;" vertex="1" parent="sdbWK73cE8uQ8-mOUsc3-63">
          <mxGeometry y="60" width="1300" height="990" as="geometry" />
        </mxCell>
        <mxCell id="sdbWK73cE8uQ8-mOUsc3-70" value="" style="shape=partialRectangle;html=1;whiteSpace=wrap;connectable=0;strokeColor=inherit;overflow=hidden;fillColor=none;top=0;left=0;bottom=0;right=0;pointerEvents=1;" vertex="1" parent="sdbWK73cE8uQ8-mOUsc3-69">
          <mxGeometry width="240" height="990" as="geometry">
            <mxRectangle width="240" height="990" as="alternateBounds" />
          </mxGeometry>
        </mxCell>
        <mxCell id="sdbWK73cE8uQ8-mOUsc3-71" value="" style="shape=partialRectangle;html=1;whiteSpace=wrap;connectable=0;strokeColor=inherit;overflow=hidden;fillColor=none;top=0;left=0;bottom=0;right=0;pointerEvents=1;" vertex="1" parent="sdbWK73cE8uQ8-mOUsc3-69">
          <mxGeometry x="240" width="349" height="990" as="geometry">
            <mxRectangle width="349" height="990" as="alternateBounds" />
          </mxGeometry>
        </mxCell>
        <mxCell id="sdbWK73cE8uQ8-mOUsc3-72" value="" style="shape=partialRectangle;html=1;whiteSpace=wrap;connectable=0;strokeColor=inherit;overflow=hidden;fillColor=none;top=0;left=0;bottom=0;right=0;pointerEvents=1;" vertex="1" parent="sdbWK73cE8uQ8-mOUsc3-69">
          <mxGeometry x="589" width="336" height="990" as="geometry">
            <mxRectangle width="336" height="990" as="alternateBounds" />
          </mxGeometry>
        </mxCell>
        <mxCell id="sdbWK73cE8uQ8-mOUsc3-73" value="" style="shape=partialRectangle;html=1;whiteSpace=wrap;connectable=0;strokeColor=inherit;overflow=hidden;fillColor=none;top=0;left=0;bottom=0;right=0;pointerEvents=1;" vertex="1" parent="sdbWK73cE8uQ8-mOUsc3-69">
          <mxGeometry x="925" width="375" height="990" as="geometry">
            <mxRectangle width="375" height="990" as="alternateBounds" />
          </mxGeometry>
        </mxCell>
        <mxCell id="sdbWK73cE8uQ8-mOUsc3-74" value="Mulai" style="rounded=1;whiteSpace=wrap;html=1;" vertex="1" parent="WIyWlLk6GJQsqaUBKTNV-1">
          <mxGeometry x="140" y="100" width="70" height="30" as="geometry" />
        </mxCell>
        <mxCell id="sdbWK73cE8uQ8-mOUsc3-77" value="" style="endArrow=classic;html=1;rounded=0;fontSize=12;startSize=8;endSize=8;curved=1;" edge="1" parent="WIyWlLk6GJQsqaUBKTNV-1">
          <mxGeometry width="50" height="50" relative="1" as="geometry">
            <mxPoint x="215" y="184.5" as="sourcePoint" />
            <mxPoint x="334.5" y="184.5" as="targetPoint" />
          </mxGeometry>
        </mxCell>
        <mxCell id="sdbWK73cE8uQ8-mOUsc3-78" value="Input Data&amp;nbsp;&lt;div&gt;Pasien&lt;/div&gt;" style="rounded=0;whiteSpace=wrap;html=1;" vertex="1" parent="WIyWlLk6GJQsqaUBKTNV-1">
          <mxGeometry x="340" y="165" width="90" height="40" as="geometry" />
        </mxCell>
        <mxCell id="sdbWK73cE8uQ8-mOUsc3-79" value="" style="endArrow=classic;html=1;rounded=0;fontSize=12;startSize=8;endSize=8;curved=1;" edge="1" parent="WIyWlLk6GJQsqaUBKTNV-1" target="sdbWK73cE8uQ8-mOUsc3-80">
          <mxGeometry width="50" height="50" relative="1" as="geometry">
            <mxPoint x="430" y="184.5" as="sourcePoint" />
            <mxPoint x="463.5" y="184.5" as="targetPoint" />
            <Array as="points">
              <mxPoint x="450" y="184.5" />
            </Array>
          </mxGeometry>
        </mxCell>
        <mxCell id="sdbWK73cE8uQ8-mOUsc3-80" value="Data&amp;nbsp;&lt;div&gt;Pasien&lt;/div&gt;" style="shape=cylinder3;whiteSpace=wrap;html=1;boundedLbl=1;backgroundOutline=1;size=15;" vertex="1" parent="WIyWlLk6GJQsqaUBKTNV-1">
          <mxGeometry x="470" y="160" width="50" height="50" as="geometry" />
        </mxCell>
        <mxCell id="sdbWK73cE8uQ8-mOUsc3-82" value="" style="endArrow=classic;html=1;rounded=0;fontSize=12;startSize=8;endSize=8;curved=1;" edge="1" parent="WIyWlLk6GJQsqaUBKTNV-1">
          <mxGeometry width="50" height="50" relative="1" as="geometry">
            <mxPoint x="170" y="130" as="sourcePoint" />
            <mxPoint x="170" y="170" as="targetPoint" />
          </mxGeometry>
        </mxCell>
        <mxCell id="sdbWK73cE8uQ8-mOUsc3-83" value="" style="endArrow=classic;html=1;rounded=0;fontSize=12;startSize=8;endSize=8;curved=1;" edge="1" parent="WIyWlLk6GJQsqaUBKTNV-1">
          <mxGeometry width="50" height="50" relative="1" as="geometry">
            <mxPoint x="384.5" y="205" as="sourcePoint" />
            <mxPoint x="384.5" y="245" as="targetPoint" />
          </mxGeometry>
        </mxCell>
        <mxCell id="sdbWK73cE8uQ8-mOUsc3-85" value="Data Tenaga&lt;div&gt;Medis&lt;/div&gt;" style="rounded=0;whiteSpace=wrap;html=1;" vertex="1" parent="WIyWlLk6GJQsqaUBKTNV-1">
          <mxGeometry x="700" y="255" width="90" height="40" as="geometry" />
        </mxCell>
        <mxCell id="sdbWK73cE8uQ8-mOUsc3-90" value="" style="endArrow=none;html=1;rounded=0;fontSize=12;startSize=8;endSize=8;curved=1;" edge="1" parent="WIyWlLk6GJQsqaUBKTNV-1">
          <mxGeometry width="50" height="50" relative="1" as="geometry">
            <mxPoint x="750" y="355" as="sourcePoint" />
            <mxPoint x="750" y="300" as="targetPoint" />
          </mxGeometry>
        </mxCell>
        <mxCell id="sdbWK73cE8uQ8-mOUsc3-91" value="" style="endArrow=classic;html=1;rounded=0;fontSize=12;startSize=8;endSize=8;curved=1;" edge="1" parent="WIyWlLk6GJQsqaUBKTNV-1">
          <mxGeometry width="50" height="50" relative="1" as="geometry">
            <mxPoint x="450" y="274.5" as="sourcePoint" />
            <mxPoint x="690" y="274.5" as="targetPoint" />
          </mxGeometry>
        </mxCell>
        <mxCell id="sdbWK73cE8uQ8-mOUsc3-92" value="Data Pasien" style="shape=document;whiteSpace=wrap;html=1;boundedLbl=1;" vertex="1" parent="WIyWlLk6GJQsqaUBKTNV-1">
          <mxGeometry x="130" y="170" width="90" height="50" as="geometry" />
        </mxCell>
        <mxCell id="sdbWK73cE8uQ8-mOUsc3-94" value="Data Tenanga&lt;div&gt;Medis&lt;/div&gt;" style="strokeWidth=2;html=1;shape=mxgraph.flowchart.document2;whiteSpace=wrap;size=0.25;" vertex="1" parent="WIyWlLk6GJQsqaUBKTNV-1">
          <mxGeometry x="350" y="250" width="80" height="50" as="geometry" />
        </mxCell>
        <mxCell id="sdbWK73cE8uQ8-mOUsc3-96" value="Data&lt;div&gt;Tenaga&lt;/div&gt;&lt;div&gt;Medis&lt;/div&gt;" style="strokeWidth=2;html=1;shape=mxgraph.flowchart.database;whiteSpace=wrap;" vertex="1" parent="WIyWlLk6GJQsqaUBKTNV-1">
          <mxGeometry x="250" y="252.5" width="50" height="45" as="geometry" />
        </mxCell>
        <mxCell id="sdbWK73cE8uQ8-mOUsc3-99" value="" style="edgeStyle=segmentEdgeStyle;endArrow=classic;html=1;curved=0;rounded=0;endSize=8;startSize=8;fontSize=12;" edge="1" parent="WIyWlLk6GJQsqaUBKTNV-1">
          <mxGeometry width="50" height="50" relative="1" as="geometry">
            <mxPoint x="750" y="354" as="sourcePoint" />
            <mxPoint x="280" y="300" as="targetPoint" />
          </mxGeometry>
        </mxCell>
        <mxCell id="sdbWK73cE8uQ8-mOUsc3-102" value="pasien&amp;nbsp;&lt;div&gt;bertemu&amp;nbsp;&lt;/div&gt;&lt;div&gt;dokter&lt;/div&gt;" style="verticalLabelPosition=middle;verticalAlign=middle;html=1;shape=trapezoid;perimeter=trapezoidPerimeter;whiteSpace=wrap;size=0.23;arcSize=10;flipV=1;labelPosition=center;align=center;" vertex="1" parent="WIyWlLk6GJQsqaUBKTNV-1">
          <mxGeometry x="620" y="370" width="100" height="40" as="geometry" />
        </mxCell>
        <mxCell id="sdbWK73cE8uQ8-mOUsc3-103" value="Diagnosis&lt;div&gt;dan Resep&lt;/div&gt;&lt;div&gt;Obat&lt;/div&gt;" style="html=1;dashed=0;whiteSpace=wrap;" vertex="1" parent="WIyWlLk6GJQsqaUBKTNV-1">
          <mxGeometry x="960" y="310" width="87.5" height="45" as="geometry" />
        </mxCell>
        <mxCell id="sdbWK73cE8uQ8-mOUsc3-104" value="" style="edgeStyle=segmentEdgeStyle;endArrow=classic;html=1;curved=0;rounded=0;endSize=8;startSize=8;fontSize=12;" edge="1" parent="WIyWlLk6GJQsqaUBKTNV-1">
          <mxGeometry width="50" height="50" relative="1" as="geometry">
            <mxPoint x="713.5" y="390" as="sourcePoint" />
            <mxPoint x="997.5" y="360" as="targetPoint" />
          </mxGeometry>
        </mxCell>
        <mxCell id="sdbWK73cE8uQ8-mOUsc3-109" value="" style="endArrow=none;html=1;rounded=0;fontSize=12;startSize=8;endSize=8;curved=1;" edge="1" parent="WIyWlLk6GJQsqaUBKTNV-1">
          <mxGeometry width="50" height="50" relative="1" as="geometry">
            <mxPoint x="880" y="470" as="sourcePoint" />
            <mxPoint x="880" y="390" as="targetPoint" />
          </mxGeometry>
        </mxCell>
        <mxCell id="sdbWK73cE8uQ8-mOUsc3-111" value="" style="endArrow=classic;html=1;rounded=0;fontSize=12;startSize=8;endSize=8;curved=1;" edge="1" parent="WIyWlLk6GJQsqaUBKTNV-1">
          <mxGeometry width="50" height="50" relative="1" as="geometry">
            <mxPoint x="880" y="470" as="sourcePoint" />
            <mxPoint x="500" y="470" as="targetPoint" />
          </mxGeometry>
        </mxCell>
        <mxCell id="sdbWK73cE8uQ8-mOUsc3-113" value="Data Obat" style="strokeWidth=2;html=1;shape=mxgraph.flowchart.document2;whiteSpace=wrap;size=0.25;" vertex="1" parent="WIyWlLk6GJQsqaUBKTNV-1">
          <mxGeometry x="400" y="450" width="90" height="50" as="geometry" />
        </mxCell>
        <mxCell id="sdbWK73cE8uQ8-mOUsc3-115" value="" style="endArrow=classic;html=1;rounded=0;fontSize=12;startSize=8;endSize=8;curved=1;" edge="1" parent="WIyWlLk6GJQsqaUBKTNV-1">
          <mxGeometry width="50" height="50" relative="1" as="geometry">
            <mxPoint x="400" y="474.23" as="sourcePoint" />
            <mxPoint x="320" y="474.23" as="targetPoint" />
          </mxGeometry>
        </mxCell>
        <mxCell id="sdbWK73cE8uQ8-mOUsc3-116" value="Data&lt;div&gt;Obat&lt;/div&gt;" style="shape=cylinder3;whiteSpace=wrap;html=1;boundedLbl=1;backgroundOutline=1;size=15;" vertex="1" parent="WIyWlLk6GJQsqaUBKTNV-1">
          <mxGeometry x="270" y="450" width="50" height="55" as="geometry" />
        </mxCell>
        <mxCell id="sdbWK73cE8uQ8-mOUsc3-117" value="" style="endArrow=classic;html=1;rounded=0;fontSize=12;startSize=8;endSize=8;curved=1;" edge="1" parent="WIyWlLk6GJQsqaUBKTNV-1">
          <mxGeometry width="50" height="50" relative="1" as="geometry">
            <mxPoint x="440" y="505" as="sourcePoint" />
            <mxPoint x="440" y="575" as="targetPoint" />
          </mxGeometry>
        </mxCell>
        <mxCell id="sdbWK73cE8uQ8-mOUsc3-118" value="Pembayaran" style="rounded=0;whiteSpace=wrap;html=1;" vertex="1" parent="WIyWlLk6GJQsqaUBKTNV-1">
          <mxGeometry x="397.5" y="580" width="95" height="50" as="geometry" />
        </mxCell>
        <mxCell id="sdbWK73cE8uQ8-mOUsc3-119" value="" style="endArrow=classic;html=1;rounded=0;fontSize=12;startSize=8;endSize=8;curved=1;" edge="1" parent="WIyWlLk6GJQsqaUBKTNV-1" target="sdbWK73cE8uQ8-mOUsc3-120">
          <mxGeometry width="50" height="50" relative="1" as="geometry">
            <mxPoint x="444.37" y="630" as="sourcePoint" />
            <mxPoint x="444.37" y="670" as="targetPoint" />
          </mxGeometry>
        </mxCell>
        <mxCell id="sdbWK73cE8uQ8-mOUsc3-120" value="pembuatan&lt;div&gt;Laporan&lt;/div&gt;" style="rounded=0;whiteSpace=wrap;html=1;" vertex="1" parent="WIyWlLk6GJQsqaUBKTNV-1">
          <mxGeometry x="400" y="680" width="90" height="40" as="geometry" />
        </mxCell>
        <mxCell id="sdbWK73cE8uQ8-mOUsc3-121" value="Laporan" style="strokeWidth=2;html=1;shape=mxgraph.flowchart.multi-document;whiteSpace=wrap;" vertex="1" parent="WIyWlLk6GJQsqaUBKTNV-1">
          <mxGeometry x="400" y="760" width="88" height="60" as="geometry" />
        </mxCell>
        <mxCell id="sdbWK73cE8uQ8-mOUsc3-122" value="" style="endArrow=classic;html=1;rounded=0;fontSize=12;startSize=8;endSize=8;curved=1;" edge="1" parent="WIyWlLk6GJQsqaUBKTNV-1">
          <mxGeometry width="50" height="50" relative="1" as="geometry">
            <mxPoint x="444.37" y="720" as="sourcePoint" />
            <mxPoint x="444.37" y="760" as="targetPoint" />
          </mxGeometry>
        </mxCell>
        <mxCell id="sdbWK73cE8uQ8-mOUsc3-123" value="" style="endArrow=classic;html=1;rounded=0;fontSize=12;startSize=8;endSize=8;curved=1;" edge="1" parent="WIyWlLk6GJQsqaUBKTNV-1">
          <mxGeometry width="50" height="50" relative="1" as="geometry">
            <mxPoint x="443.23" y="820" as="sourcePoint" />
            <mxPoint x="443.23" y="860" as="targetPoint" />
          </mxGeometry>
        </mxCell>
        <mxCell id="sdbWK73cE8uQ8-mOUsc3-124" value="Selesai" style="rounded=1;whiteSpace=wrap;html=1;" vertex="1" parent="WIyWlLk6GJQsqaUBKTNV-1">
          <mxGeometry x="400" y="860" width="90" height="50" as="geometry" />
        </mxCell>
      </root>
    </mxGraphModel>
  </diagram>
</mxfile>
